# xmcd CD database file
#
# Track frame offsets:
#	150
#	17420
#	70052
#	73415
#	94227
#	116157
#	120637
#	149775
#	201070
#	216132
#	237302
#
# Disc length: 3375 seconds
#
# Revision: 0
# Processed by: cddbd v1.5.1PL0 Copyright (c) Steve Scherf et al.
# Submitted via: CDex 1.51
#
DISCID=ab0d2d0b
DTITLE=Darmin - Guardians Of The Legend
DYEAR=1992
DGENRE=New Age
TTITLE0=01 Dogon's Dance
TTITLE1=02 Arion's Ride
TTITLE2=03 We Are One (intro)
TTITLE3=04 We Are One
TTITLE4=05 Peter Dolphin
TTITLE5=06 Whales
TTITLE6=07 Nommo's Sacrifice
TTITLE7=08 Darshan with Osiris
TTITLE8=09 Waterborn
TTITLE9=10 Dolphin Dreamers
TTITLE10=11 Mermaids
EXTD=YEAR: 1992
EXTT0=
EXTT1=
EXTT2=
EXTT3=
EXTT4=
EXTT5=
EXTT6=
EXTT7=
EXTT8=
EXTT9=
EXTT10=
PLAYORDER=
